<svg width="2560" height="480" viewBox="0 0 2560 480" fill="none" xmlns="http://www.w3.org/2000/svg">
<path d="M220.35 478.5C179.025 474.525 143.025 462 109.5 439.95C86.5499 424.875 65.4 404.7 48.75 382.125C28.05 354.075 13.125 318.375 6.82496 281.925C2.02496 254.1 2.84996 219.225 8.99996 191.1C20.625 137.7 50.4 90.075 93.75 55.35C127.5 28.35 170.325 11.175 216.75 5.92502C221.1 5.47502 231.9 5.02502 240.75 5.02502C261.9 5.02502 278.475 6.97502 297.45 11.55C365.1 28.05 423.45 74.625 453.375 136.125C476.1 182.775 483.525 236.1 474.3 286.5C467.55 323.7 450.825 360.3 426.75 390.75C418.425 401.25 398.4 421.05 387.825 429.225C353.625 455.625 316.05 471.225 271.65 477.45C262.2 478.725 229.8 479.4 220.35 478.5ZM271.875 462C277.65 461.175 286.05 459.6 290.625 458.55C300.15 456.375 316.5 451.5 316.5 450.825C316.5 450.525 290.925 436.725 259.725 420.15L202.95 389.925L199.875 391.575C198.225 392.55 195.525 393.525 193.95 393.75L190.95 394.125L179.85 421.875C173.7 437.175 168.6 450.15 168.375 450.825C167.625 453 192.75 459.75 211.125 462.3C223.8 464.1 224.175 464.1 243.375 463.875C257.1 463.65 263.85 463.275 271.875 462ZM174.975 421.05L186.75 392.025L184.95 389.925C183.975 388.725 182.7 386.625 182.25 385.125C181.8 383.7 180.975 382.5 180.525 382.5C180 382.425 151.875 378.45 117.975 373.575C84 368.775 56.25 364.95 56.25 365.25C56.25 365.475 59.475 369.9 63.375 375.15C83.5499 402 107.175 422.4 136.875 438.45C143.625 442.125 160.95 449.925 162.45 450C162.9 450 168.525 436.95 174.975 421.05ZM326.925 447.075L329.7 445.575L339.375 412.575L348.975 379.575L346.35 376.65C344.85 375 343.575 373.35 343.425 372.9C343.2 372.3 321.675 373.875 273.75 377.85C215.625 382.725 204.375 383.85 204.15 384.75C204 385.575 220.875 394.8 263.025 417.15C295.5 434.25 322.575 448.35 323.1 448.425C323.625 448.425 325.35 447.825 326.925 447.075ZM342.225 440.175C373.725 424.35 405.975 395.175 427.5 363.15C430.05 359.325 432 356.025 431.775 355.8C431.475 355.5 371.4 367.575 367.35 368.7C366.6 368.925 366 369.6 366 370.275C366 374.625 360.15 380.25 355.725 380.25C354.375 380.25 353.25 380.4 353.25 380.625C353.25 380.85 349.35 394.425 344.55 410.85C339.825 427.2 335.775 441.225 335.55 441.975C335.325 442.65 335.325 443.25 335.625 443.25C335.85 443.25 338.775 441.825 342.225 440.175ZM273.75 373.125C310.8 370.05 341.55 367.5 342.15 367.5C342.675 367.425 343.95 365.775 344.85 363.675L346.65 359.925L333.975 339.75L321.375 319.5H318.075C316.275 319.5 313.35 318.825 311.625 317.925L308.475 316.35L257.55 346.5C229.575 363.15 205.95 377.175 205.125 377.7C203.775 378.675 203.775 378.75 205.05 378.75C205.8 378.75 236.7 376.2 273.75 373.125ZM185.625 374.475L189.225 370.875L186.9 354C185.55 344.7 182.4 322.725 179.85 305.1L175.2 273H171.9C170.1 273 168.075 272.7 167.325 272.25C166.125 271.65 156.375 278.775 109.05 314.7C77.7 338.475 51.975 358.05 51.825 358.2C51.6 358.425 51.825 358.875 52.2 359.25C52.8 359.85 174.675 377.775 179.7 377.925C181.575 378 182.85 377.25 185.625 374.475ZM254.25 343.425L306 312.6V309.75V306.975L294.975 303.525C288.825 301.575 261 292.425 233.1 283.2L182.4 266.475L180.75 268.725L179.1 270.9L186.45 321.075C192.6 362.85 194.025 371.25 195 371.25C195.6 371.25 197.325 371.925 198.75 372.675C200.175 373.5 201.6 374.175 201.975 374.175C202.275 374.25 225.825 360.375 254.25 343.425ZM401.175 356.55C420 352.575 435.45 349.275 435.45 349.2C436.125 348.525 444.675 330.675 446.925 325.2C455.4 304.8 461.1 280.275 462.6 257.625L463.275 247.875L445.95 227.4C429.15 207.525 428.55 206.925 426.15 207.15L423.6 207.375L392.25 283.35L360.825 359.325L362.775 361.575C363.9 362.775 365.25 363.75 365.85 363.75C366.45 363.75 382.35 360.525 401.175 356.55ZM356.7 356.7C357.15 356.325 417 210.525 416.85 210.3C416.7 210.15 396.3 230.7 371.475 255.975L326.475 301.875L327.45 304.275C328.95 307.725 328.725 310.425 326.775 313.875L325.05 316.95L337.8 337.275L350.625 357.675L353.625 357.225C355.275 357 356.7 356.775 356.7 356.7ZM106.125 310.875C136.275 287.85 161.1 268.8 161.4 268.575C163.725 266.625 158.55 266.25 90.375 263.7C51.675 262.275 19.8 261.225 19.575 261.45C19.425 261.6 20.025 267.225 20.925 273.825C24.6 299.775 33.075 325.8 45.225 347.775C48.525 353.925 49.125 354.6 50.175 353.7C50.85 353.175 76.0499 333.9 106.125 310.875ZM309.375 300.225C310.65 299.025 312.3 297.825 312.975 297.375C314.1 296.7 313.95 292.575 311.25 245.25C309.6 216.975 308.25 193.8 308.25 193.725C308.25 193.575 307.65 193.5 306.825 193.5C306.075 193.5 304.575 192.825 303.45 191.925L301.425 190.35L275.775 205.35C261.675 213.6 235.125 229.125 216.75 239.85C198.375 250.65 183.375 259.8 183.375 260.325C183.375 260.925 206.775 269.025 244.875 281.7C278.7 292.95 306.525 302.1 306.675 302.175C306.825 302.25 308.025 301.35 309.375 300.225ZM353.625 268.35C370.125 251.7 391.125 230.475 400.35 221.175L417.075 204.3L415.8 201.975L414.45 199.725L370.575 193.575C346.425 190.2 325.425 187.2 324 186.975C321.675 186.675 321.225 186.9 320.025 189C319.2 190.275 317.475 191.925 316.05 192.525C314.625 193.2 313.5 194.1 313.5 194.55C313.425 195 314.7 218.25 316.275 246.15L319.05 297L321 297.675C322.05 298.05 323.025 298.425 323.25 298.425C323.475 298.5 337.125 284.925 353.625 268.35ZM159.6 259.8C159.45 259.125 142.8 246.45 122.55 231.675L85.65 204.75L82.7999 205.95C80.85 206.775 78.825 207 76.5 206.7C74.625 206.475 72.375 206.175 71.475 206.1C70.275 205.95 63.525 211.8 44.325 229.8C29.025 244.2 18.75 254.325 18.75 255.15C18.75 256.35 19.5 256.5 24.975 256.575C28.35 256.575 57.3 257.55 89.25 258.675C163.05 261.375 159.9 261.3 159.6 259.8ZM164.025 253.2L165.675 251.475L157.875 216.45C153.525 197.25 150 181.35 150 181.2C150 181.05 148.95 180.75 147.6 180.45C146.325 180.225 144.075 179.1 142.725 178.05L140.175 176.1L114.75 185.25L89.4 194.4L88.875 197.775C88.5 200.55 88.65 201.3 89.775 202.125C90.525 202.65 106.95 214.8 126.375 229.05C145.725 243.3 161.775 255 162 255C162.225 255 163.125 254.175 164.025 253.2ZM240 220.95C271.575 202.575 297.675 187.05 298.125 186.45C298.5 185.85 298.65 185.1 298.35 184.875C298.125 184.575 267.075 181.8 229.35 178.575L160.875 172.8L159.675 174.75C159 175.875 157.5 177.45 156.3 178.275L154.2 179.85L162 214.725L169.875 249.6L173.1 250.125C175.125 250.425 177.225 251.4 178.725 252.75C180.075 253.95 181.5 254.85 181.875 254.7C182.325 254.55 208.425 239.4 240 220.95ZM66.975 200.25C66.45 194.925 66.675 192.9 67.725 190.8L68.85 188.55L53.4 169.95L37.95 151.35L35.925 155.775C25.425 179.325 18.825 210.75 18.75 237.225V247.575L42.975 224.85C63.225 205.8 67.125 201.825 66.975 200.25ZM462.75 227.7C461.475 207.45 458.4 191.025 452.625 173.625C449.775 164.85 442.575 147.375 442.125 147.9C442.05 148.05 439.5 156.675 436.5 167.1L431.1 186.075L433.05 187.95C436.875 191.85 437.4 198 434.175 202.125C432.6 204.075 432.6 204.075 434.025 205.725C434.85 206.625 441.675 214.725 449.25 223.725C456.75 232.725 463.05 239.925 463.2 239.775C463.35 239.625 463.125 234.225 462.75 227.7ZM414.6 191.175L416.175 188.1L381.975 129.45C363.15 97.275 347.4 70.425 346.95 69.9C346.275 69.225 345.525 69.15 343.8 69.75L341.625 70.5L328.575 121.2L315.525 171.825L318.15 174.6C319.65 176.1 321.15 178.425 321.525 179.625L322.275 181.875L366.075 188.025C390.15 191.325 410.625 194.175 411.45 194.175C412.65 194.25 413.475 193.425 414.6 191.175ZM113.475 180.3C136.05 172.125 138 171.3 138 169.65C138 168.75 138.525 166.725 139.125 165.3L140.25 162.6L109.425 127.425C92.475 108 78.45 92.325 78.2999 92.475C78.15 92.625 78.375 108.9 78.75 128.7C79.125 148.425 79.5 169.05 79.5 174.45V184.35L81.6749 185.25C82.875 185.7 84.6 186.975 85.575 187.95C86.5499 189 87.6749 189.675 88.125 189.525C88.5 189.375 99.8999 185.25 113.475 180.3ZM74.7 149.325C74.475 129.675 74.025 109.8 73.7999 105.15C73.2 95.1 73.65 95.025 64.8 106.65C57.825 115.725 50.4 127.5 44.4 138.75L39.825 147.375L55.95 166.65C69.525 182.85 72.2999 185.775 73.575 185.475L75.225 185.025L74.7 149.325ZM426.825 183.825C427.05 183.6 430.05 173.85 433.425 162.15L439.575 141L434.925 132.9C429.3 123.15 421.8 112.05 415.05 103.5C404.55 90.3 376.5 63.9 370.425 61.65C369.45 61.275 365.025 60.675 360.675 60.375L352.8 59.85L351.6 62.85L350.4 65.85L385.05 125.55L419.625 185.25L423 184.8C424.875 184.5 426.6 184.125 426.825 183.825ZM296.625 178.65C296.175 178.275 269.55 164.25 237.375 147.375C205.2 130.575 176.925 115.725 174.525 114.45C170.625 112.35 170.1 112.275 169.275 113.325C168 114.975 163.425 117.75 161.85 117.75C160.425 117.75 160.65 116.7 156.75 140.25C154.575 152.925 153.9 158.7 154.5 158.85C156.525 159.525 159.15 162.6 160.05 165.375C160.875 167.775 161.475 168.45 163.275 168.675C168.3 169.275 289.5 179.1 293.25 179.175C295.5 179.175 297 178.95 296.625 178.65ZM303.375 174C304.125 173.175 306.225 172.05 308.025 171.675C310.875 170.925 311.325 170.475 311.925 168.075C318.675 142.125 336.9 72.075 337.2 71.175C337.425 70.35 336.675 69.45 335.025 68.475C333.6 67.65 331.875 65.625 331.05 63.975L329.625 60.975L250.875 83.25C186.45 101.55 172.125 105.825 172.125 106.875C172.125 107.775 190.05 117.45 236.625 141.75C272.1 160.275 301.35 175.425 301.575 175.425C301.8 175.5 302.625 174.825 303.375 174ZM147.675 158.25C148.65 158.25 149.25 157.575 149.55 156.225C150.3 152.7 156 118.95 156 118.125C156 117.75 155.025 116.7 153.825 115.95C151.2 114.15 149.55 111.525 148.875 107.85C148.575 106.2 147.825 104.925 147.075 104.7C136.35 101.625 82.5 87 81.825 87C81.2999 87 81 87.375 81.15 87.825C81.2999 88.275 95.3999 104.625 112.5 124.125C138.675 154.05 143.7 159.525 144.825 158.925C145.575 158.55 146.85 158.25 147.675 158.25ZM250.875 78.375C306.45 62.775 329.85 55.875 330.375 54.975C330.825 54.3 332.175 52.575 333.45 51.075L335.775 48.45L333.525 43.35C330.975 37.575 331.65 38.025 318.15 32.925C294.9 24.225 269.175 19.425 244.35 19.2C237.075 19.2 231 19.275 230.775 19.5C224.1 27.45 169.5 98.475 169.5 99.225C169.5 100.575 170.175 101.25 171.225 100.8C171.75 100.65 207.6 90.525 250.875 78.375ZM151.95 98.175C154.275 95.55 158.025 94.35 162 94.875L165.45 95.325L193.95 58.8C209.55 38.7 222.825 21.6 223.35 20.85C224.325 19.575 224.1 19.5 219.975 19.95C171.975 24.825 124.95 45.9 90.075 78.15L85.5 82.425L88.65 83.325C108.975 88.875 149.025 99.675 149.7 99.675C150.15 99.75 151.125 99 151.95 98.175ZM363 55.95C363 55.575 346.275 45.6 342.15 43.575C340.35 42.6 338.7 42.075 338.475 42.225C338.325 42.45 338.7 43.65 339.3 44.925C340.2 46.575 341.325 47.4 343.725 48.075C345.75 48.6 347.925 50.025 349.8 51.975C352.425 54.75 353.1 55.05 357.675 55.5C360.375 55.8 362.7 56.1 362.85 56.175C362.925 56.175 363 56.1 363 55.95Z" fill="#455A5E"/>
<path d="M517 92.4106V95.2121H531.219H545.437V132.566V169.919H548.379H551.32V132.566V95.2121H565.539H579.757V92.4106V89.6091H548.379H517V92.4106Z" fill="#5F8081"/>
<path d="M629.767 129.764V169.919H632.708H635.65V149.842V129.764H664.087H692.523V149.842V169.919H695.465H698.407V129.764V89.6091H695.465H692.523L692.327 107.072L692.033 124.628L663.891 124.908L635.65 125.095V107.352V89.6091H632.708H629.767V129.764Z" fill="#5F8081"/>
<path d="M761.164 129.764V169.919H781.266H801.367V167.117V164.316H784.207H767.047V146.573V128.924L782.05 128.644L796.955 128.363V126.029V123.694L782.05 123.414L767.047 123.134V109.22V95.2121H783.717H800.387V92.4106V89.6091H780.775H761.164V129.764Z" fill="#5F8081"/>
<path d="M1092.6 217.731C1070.14 219.412 1054.16 225.668 1040.14 238.275C1020.04 256.111 1010.23 279.831 1010.23 310.647C1010.23 335.113 1015.72 354.91 1026.9 370.785C1033.57 380.217 1045.82 391.05 1054.94 395.532C1071.32 403.75 1081.62 405.617 1105.35 404.964C1123.98 404.497 1133.1 402.442 1147.02 395.625C1158.49 390.022 1172.71 376.202 1179.08 364.622C1187.03 349.868 1190.46 336.327 1191.34 316.063C1193.7 259.66 1161.92 221.279 1109.76 217.731C1104.95 217.357 1097.21 217.357 1092.6 217.731ZM1116.43 237.715C1127.7 240.143 1135.25 244.158 1143.59 252.096C1151.82 259.94 1156.34 266.664 1159.87 276.189C1171.53 308.312 1165.94 348.654 1147.02 368.638C1140.84 375.081 1133 380.497 1125.45 383.486C1111.13 389.182 1087.2 388.715 1074.36 382.552C1062.59 376.855 1051.81 366.677 1046.02 355.657C1034.16 333.526 1033.67 292.717 1044.84 270.492C1050.92 258.352 1060.73 248.267 1072.3 242.197C1082.89 236.688 1102.4 234.727 1116.43 237.715Z" fill="#5F8081"/>
<path d="M553.38 219.785C547.594 221.653 543.966 225.108 542.103 230.991C540.632 235.287 540.534 243.971 540.73 316.717C541.024 394.225 541.122 397.68 542.887 399.547C546.123 402.909 550.83 403.843 555.831 401.975C558.184 401.135 560.636 399.641 561.126 398.707C561.714 397.586 562.107 369.105 562.107 320.639C562.107 254.524 562.303 244.438 563.48 245.559C564.264 246.306 569.167 256.018 574.462 267.037C614.666 351.829 633.199 390.303 635.258 392.917C638.494 396.839 642.416 398.707 647.613 398.707C652.418 398.707 657.223 396.279 659.772 392.73C661.145 390.583 674.383 363.221 717.626 272.453L731.256 243.691L731.746 320.079C732.139 377.509 732.531 396.839 733.413 398.333C734.59 400.388 740.278 403.376 742.729 403.376C743.415 403.376 745.867 402.536 748.122 401.602C751.554 400.108 752.437 399.174 753.319 395.999C754.006 393.384 754.3 367.984 754.104 312.608L753.809 232.952L751.652 229.124C745.867 218.851 732.825 215.396 723.019 221.56C718.509 224.454 715.273 230.244 696.152 270.772C660.851 345.479 648.986 370.319 647.907 371.439C647.025 372.373 640.357 359.019 616.529 307.939C599.957 272.36 584.562 239.863 582.307 235.754C577.894 227.536 573.972 222.774 569.951 220.813C565.833 218.758 558.282 218.385 553.38 219.785Z" fill="#5F8081"/>
<path d="M1452.18 220.159C1445.61 224.361 1446.1 217.731 1445.9 310.46C1445.7 376.108 1445.9 394.972 1446.88 396.746C1447.47 397.96 1449.33 399.921 1450.8 400.948C1453.55 402.816 1454.63 402.909 1487.57 402.909C1519.15 402.909 1522.38 402.722 1532.68 400.761C1554.84 396.466 1570.82 388.902 1583.38 376.762C1598.58 362.008 1606.13 342.677 1607.11 315.596C1607.99 294.305 1604.85 277.869 1597.4 263.769C1585.14 240.61 1566.51 227.816 1535.82 221.56C1525.33 219.318 1522.19 219.132 1489.73 218.758C1456.69 218.385 1454.82 218.478 1452.18 220.159ZM1521.21 238.555C1539.54 241.17 1549.94 245.746 1561.02 256.298C1567.49 262.461 1569.84 265.45 1573.08 271.8C1580.63 286.928 1583.28 304.39 1581.02 324.468C1577.79 352.296 1564.55 371.346 1542.39 379.75C1530.82 384.046 1525.03 384.793 1496.89 385.353L1470.12 385.914V311.487V237.155H1491.01C1504.05 237.155 1515.23 237.621 1521.21 238.555Z" fill="#5F8081"/>
<path d="M1871.27 220.065C1869.51 220.906 1867.16 222.96 1866.17 224.454C1864.41 227.256 1864.31 230.991 1864.31 310.834C1864.31 392.917 1864.31 394.318 1866.27 397.306C1870.39 403.563 1868.92 403.47 1930.01 403.189L1985.12 402.909L1987.47 400.295C1990.9 396.466 1990.81 390.116 1987.28 387.034L1984.63 384.7H1936.29H1887.85V351.082V317.557L1931.87 317.277C1974.72 316.997 1976 316.904 1978.65 315.036C1982.27 312.515 1983.26 308.779 1981.49 304.67C1978.94 298.881 1978.25 298.787 1930.5 298.787H1887.85V268.438V238.088H1932.76C1973.45 238.088 1977.86 237.902 1981 236.407C1987.37 233.419 1988.75 226.976 1984.04 222.026L1981.2 218.945L1927.85 218.758C1879.71 218.478 1874.31 218.665 1871.27 220.065Z" fill="#5F8081"/>
<path d="M2254.09 219.879C2248.7 221.746 2247.03 224.081 2246.25 230.898C2245.95 234.073 2245.76 272.173 2245.95 315.596C2246.25 391.89 2246.34 394.598 2248.11 397.493C2251.84 403.376 2252.13 403.376 2308.12 403.376C2364.7 403.376 2364.21 403.47 2366.96 397.213C2368.62 393.384 2368.23 390.676 2365.48 387.408L2363.62 385.166L2317.14 384.7L2270.76 384.233L2270.27 304.857C2269.68 215.863 2270.17 221.466 2262.72 219.505C2258.21 218.291 2258.9 218.291 2254.09 219.879Z" fill="#5F8081"/>
<path d="M916.434 96.252H939.43V169.602H950.419V96.252H973.301V87.1328H916.434V96.252ZM1115.63 169.602H1126.57V131.653H1160.1V169.602H1171.03V87.1328H1160.1V122.25H1126.57V87.1328H1115.63V169.602ZM1319.82 169.602H1330.81V87.1328H1319.82V169.602ZM1479.6 169.602H1489.17V110.922C1489.17 109.601 1489.15 108.26 1489.11 106.901C1489.11 105.504 1489.08 104.163 1489 102.879H1489.28C1489.62 104.05 1490.04 105.277 1490.53 106.561C1491.02 107.807 1491.55 108.997 1492.11 110.129L1522.59 169.602H1533.75V87.1328H1524.17V145.586C1524.17 146.832 1524.17 148.154 1524.17 149.551C1524.21 150.948 1524.27 152.289 1524.34 153.573H1524.06C1523.72 152.364 1523.31 151.137 1522.81 149.891C1522.36 148.607 1521.83 147.361 1521.23 146.153L1491.1 87.1328H1479.6V169.602ZM1682.03 169.602H1692.96V139.413L1733.97 87.1328H1722.35L1692.96 125.309V87.1328H1682.03V169.602ZM1724.17 169.602H1736.68L1703.44 119.192L1696.64 127.631L1724.17 169.602ZM1876.02 169.602H1887V87.1328H1876.02V169.602ZM2035.79 169.602H2045.37V110.922C2045.37 109.601 2045.35 108.26 2045.31 106.901C2045.31 105.504 2045.27 104.163 2045.2 102.879H2045.48C2045.82 104.05 2046.24 105.277 2046.73 106.561C2047.22 107.807 2047.75 108.997 2048.31 110.129L2078.78 169.602H2089.94V87.1328H2080.37V145.586C2080.37 146.832 2080.37 148.154 2080.37 149.551C2080.41 150.948 2080.47 152.289 2080.54 153.573H2080.26C2079.92 152.364 2079.5 151.137 2079.01 149.891C2078.56 148.607 2078.03 147.361 2077.43 146.153L2047.29 87.1328H2035.79V169.602ZM2236.01 130.577C2236.01 143.491 2238.77 153.422 2244.28 160.37C2249.84 167.28 2257.61 170.735 2267.62 170.735C2274.42 170.735 2279.99 169.564 2284.33 167.223C2288.67 164.882 2291.64 162.748 2293.22 160.823V128.934L2266.49 128.991V137.09H2282.86V157.311C2280.82 159.086 2278.59 160.388 2276.17 161.219C2273.79 162.05 2270.96 162.465 2267.68 162.465C2261.22 162.465 2256.2 159.879 2252.61 154.706C2249.02 149.495 2247.23 142.056 2247.23 132.389V124.459C2247.23 114.679 2248.89 107.26 2252.21 102.199C2255.57 97.1394 2260.26 94.6094 2266.26 94.6094C2271.7 94.6094 2275.78 96.0632 2278.5 98.9707C2281.21 101.878 2282.57 105.806 2282.57 110.752V112.395H2293.17V110.413C2293.17 103.163 2290.88 97.2904 2286.31 92.7969C2281.78 88.2657 2275.17 86 2266.49 86C2256.9 86 2249.42 89.474 2244.06 96.4219C2238.7 103.332 2236.01 113.245 2236.01 126.159V130.577Z" fill="#5F8081"/>
</svg>
