<svg width="2560" height="480" viewBox="0 0 2560 480" fill="none" xmlns="http://www.w3.org/2000/svg">
<path d="M220.35 478.5C179.025 474.525 143.025 462 109.5 439.95C86.5502 424.875 65.4002 404.7 48.7502 382.125C28.0502 354.075 13.1252 318.375 6.8252 281.925C2.0252 254.1 2.8502 219.225 9.0002 191.1C20.6252 137.7 50.4002 90.075 93.7502 55.35C127.5 28.35 170.325 11.175 216.75 5.92496C221.1 5.47496 231.9 5.02496 240.75 5.02496C261.9 5.02496 278.475 6.97496 297.45 11.55C365.1 28.05 423.45 74.625 453.375 136.125C476.1 182.775 483.525 236.1 474.3 286.5C467.55 323.7 450.825 360.3 426.75 390.75C418.425 401.25 398.4 421.05 387.825 429.225C353.625 455.625 316.05 471.225 271.65 477.45C262.2 478.725 229.8 479.4 220.35 478.5ZM271.875 462C277.65 461.175 286.05 459.6 290.625 458.55C300.15 456.375 316.5 451.5 316.5 450.825C316.5 450.525 290.925 436.725 259.725 420.15L202.95 389.925L199.875 391.575C198.225 392.55 195.525 393.525 193.95 393.75L190.95 394.125L179.85 421.875C173.7 437.175 168.6 450.15 168.375 450.825C167.625 453 192.75 459.75 211.125 462.3C223.8 464.1 224.175 464.1 243.375 463.875C257.1 463.65 263.85 463.275 271.875 462ZM174.975 421.05L186.75 392.025L184.95 389.925C183.975 388.725 182.7 386.625 182.25 385.125C181.8 383.7 180.975 382.5 180.525 382.5C180 382.425 151.875 378.45 117.975 373.575C84.0002 368.775 56.2502 364.95 56.2502 365.25C56.2502 365.475 59.4752 369.9 63.3752 375.15C83.5502 402 107.175 422.4 136.875 438.45C143.625 442.125 160.95 449.925 162.45 450C162.9 450 168.525 436.95 174.975 421.05ZM326.925 447.075L329.7 445.575L339.375 412.575L348.975 379.575L346.35 376.65C344.85 375 343.575 373.35 343.425 372.9C343.2 372.3 321.675 373.875 273.75 377.85C215.625 382.725 204.375 383.85 204.15 384.75C204 385.575 220.875 394.8 263.025 417.15C295.5 434.25 322.575 448.35 323.1 448.425C323.625 448.425 325.35 447.825 326.925 447.075ZM342.225 440.175C373.725 424.35 405.975 395.175 427.5 363.15C430.05 359.325 432 356.025 431.775 355.8C431.475 355.5 371.4 367.575 367.35 368.7C366.6 368.925 366 369.6 366 370.275C366 374.625 360.15 380.25 355.725 380.25C354.375 380.25 353.25 380.4 353.25 380.625C353.25 380.85 349.35 394.425 344.55 410.85C339.825 427.2 335.775 441.225 335.55 441.975C335.325 442.65 335.325 443.25 335.625 443.25C335.85 443.25 338.775 441.825 342.225 440.175ZM273.75 373.125C310.8 370.05 341.55 367.5 342.15 367.5C342.675 367.425 343.95 365.775 344.85 363.675L346.65 359.925L333.975 339.75L321.375 319.5H318.075C316.275 319.5 313.35 318.825 311.625 317.925L308.475 316.35L257.55 346.5C229.575 363.15 205.95 377.175 205.125 377.7C203.775 378.675 203.775 378.75 205.05 378.75C205.8 378.75 236.7 376.2 273.75 373.125ZM185.625 374.475L189.225 370.875L186.9 354C185.55 344.7 182.4 322.725 179.85 305.1L175.2 273H171.9C170.1 273 168.075 272.7 167.325 272.25C166.125 271.65 156.375 278.775 109.05 314.7C77.7002 338.475 51.9752 358.05 51.8252 358.2C51.6002 358.425 51.8252 358.875 52.2002 359.25C52.8002 359.85 174.675 377.775 179.7 377.925C181.575 378 182.85 377.25 185.625 374.475ZM254.25 343.425L306 312.6V309.75V306.975L294.975 303.525C288.825 301.575 261 292.425 233.1 283.2L182.4 266.475L180.75 268.725L179.1 270.9L186.45 321.075C192.6 362.85 194.025 371.25 195 371.25C195.6 371.25 197.325 371.925 198.75 372.675C200.175 373.5 201.6 374.175 201.975 374.175C202.275 374.25 225.825 360.375 254.25 343.425ZM401.175 356.55C420 352.575 435.45 349.275 435.45 349.2C436.125 348.525 444.675 330.675 446.925 325.2C455.4 304.8 461.1 280.275 462.6 257.625L463.275 247.875L445.95 227.4C429.15 207.525 428.55 206.925 426.15 207.15L423.6 207.375L392.25 283.35L360.825 359.325L362.775 361.575C363.9 362.775 365.25 363.75 365.85 363.75C366.45 363.75 382.35 360.525 401.175 356.55ZM356.7 356.7C357.15 356.325 417 210.525 416.85 210.3C416.7 210.15 396.3 230.7 371.475 255.975L326.475 301.875L327.45 304.275C328.95 307.725 328.725 310.425 326.775 313.875L325.05 316.95L337.8 337.275L350.625 357.675L353.625 357.225C355.275 357 356.7 356.775 356.7 356.7ZM106.125 310.875C136.275 287.85 161.1 268.8 161.4 268.575C163.725 266.625 158.55 266.25 90.3752 263.7C51.6752 262.275 19.8002 261.225 19.5752 261.45C19.4252 261.6 20.0252 267.225 20.9252 273.825C24.6002 299.775 33.0752 325.8 45.2252 347.775C48.5252 353.925 49.1252 354.6 50.1752 353.7C50.8502 353.175 76.0502 333.9 106.125 310.875ZM309.375 300.225C310.65 299.025 312.3 297.825 312.975 297.375C314.1 296.7 313.95 292.575 311.25 245.25C309.6 216.975 308.25 193.8 308.25 193.725C308.25 193.575 307.65 193.5 306.825 193.5C306.075 193.5 304.575 192.825 303.45 191.925L301.425 190.35L275.775 205.35C261.675 213.6 235.125 229.125 216.75 239.85C198.375 250.65 183.375 259.8 183.375 260.325C183.375 260.925 206.775 269.025 244.875 281.7C278.7 292.95 306.525 302.1 306.675 302.175C306.825 302.25 308.025 301.35 309.375 300.225ZM353.625 268.35C370.125 251.7 391.125 230.475 400.35 221.175L417.075 204.3L415.8 201.975L414.45 199.725L370.575 193.575C346.425 190.2 325.425 187.2 324 186.975C321.675 186.675 321.225 186.9 320.025 189C319.2 190.275 317.475 191.925 316.05 192.525C314.625 193.2 313.5 194.1 313.5 194.55C313.425 195 314.7 218.25 316.275 246.15L319.05 297L321 297.675C322.05 298.05 323.025 298.425 323.25 298.425C323.475 298.5 337.125 284.925 353.625 268.35ZM159.6 259.8C159.45 259.125 142.8 246.45 122.55 231.675L85.6502 204.75L82.8002 205.95C80.8502 206.775 78.8252 207 76.5002 206.7C74.6252 206.475 72.3752 206.175 71.4752 206.1C70.2752 205.95 63.5252 211.8 44.3252 229.8C29.0252 244.2 18.7502 254.325 18.7502 255.15C18.7502 256.35 19.5002 256.5 24.9752 256.575C28.3502 256.575 57.3002 257.55 89.2502 258.675C163.05 261.375 159.9 261.3 159.6 259.8ZM164.025 253.2L165.675 251.475L157.875 216.45C153.525 197.25 150 181.35 150 181.2C150 181.05 148.95 180.75 147.6 180.45C146.325 180.225 144.075 179.1 142.725 178.05L140.175 176.1L114.75 185.25L89.4002 194.4L88.8752 197.775C88.5002 200.55 88.6502 201.3 89.7752 202.125C90.5252 202.65 106.95 214.8 126.375 229.05C145.725 243.3 161.775 255 162 255C162.225 255 163.125 254.175 164.025 253.2ZM240 220.95C271.575 202.575 297.675 187.05 298.125 186.45C298.5 185.85 298.65 185.1 298.35 184.875C298.125 184.575 267.075 181.8 229.35 178.575L160.875 172.8L159.675 174.75C159 175.875 157.5 177.45 156.3 178.275L154.2 179.85L162 214.725L169.875 249.6L173.1 250.125C175.125 250.425 177.225 251.4 178.725 252.75C180.075 253.95 181.5 254.85 181.875 254.7C182.325 254.55 208.425 239.4 240 220.95ZM66.9752 200.25C66.4502 194.925 66.6752 192.9 67.7252 190.8L68.8502 188.55L53.4002 169.95L37.9502 151.35L35.9252 155.775C25.4252 179.325 18.8252 210.75 18.7502 237.225V247.575L42.9752 224.85C63.2252 205.8 67.1252 201.825 66.9752 200.25ZM462.75 227.7C461.475 207.45 458.4 191.025 452.625 173.625C449.775 164.85 442.575 147.375 442.125 147.9C442.05 148.05 439.5 156.675 436.5 167.1L431.1 186.075L433.05 187.95C436.875 191.85 437.4 198 434.175 202.125C432.6 204.075 432.6 204.075 434.025 205.725C434.85 206.625 441.675 214.725 449.25 223.725C456.75 232.725 463.05 239.925 463.2 239.775C463.35 239.625 463.125 234.225 462.75 227.7ZM414.6 191.175L416.175 188.1L381.975 129.45C363.15 97.275 347.4 70.425 346.95 69.9C346.275 69.225 345.525 69.15 343.8 69.75L341.625 70.5L328.575 121.2L315.525 171.825L318.15 174.6C319.65 176.1 321.15 178.425 321.525 179.625L322.275 181.875L366.075 188.025C390.15 191.325 410.625 194.175 411.45 194.175C412.65 194.25 413.475 193.425 414.6 191.175ZM113.475 180.3C136.05 172.125 138 171.3 138 169.65C138 168.75 138.525 166.725 139.125 165.3L140.25 162.6L109.425 127.425C92.4752 108 78.4502 92.325 78.3002 92.475C78.1502 92.625 78.3752 108.9 78.7502 128.7C79.1252 148.425 79.5002 169.05 79.5002 174.45V184.35L81.6752 185.25C82.8752 185.7 84.6002 186.975 85.5752 187.95C86.5502 189 87.6752 189.675 88.1252 189.525C88.5002 189.375 99.9002 185.25 113.475 180.3ZM74.7002 149.325C74.4752 129.675 74.0252 109.8 73.8002 105.15C73.2002 95.1 73.6502 95.025 64.8002 106.65C57.8252 115.725 50.4002 127.5 44.4002 138.75L39.8252 147.375L55.9502 166.65C69.5252 182.85 72.3002 185.775 73.5752 185.475L75.2252 185.025L74.7002 149.325ZM426.825 183.825C427.05 183.6 430.05 173.85 433.425 162.15L439.575 141L434.925 132.9C429.3 123.15 421.8 112.05 415.05 103.5C404.55 90.3 376.5 63.9 370.425 61.65C369.45 61.275 365.025 60.675 360.675 60.375L352.8 59.85L351.6 62.85L350.4 65.85L385.05 125.55L419.625 185.25L423 184.8C424.875 184.5 426.6 184.125 426.825 183.825ZM296.625 178.65C296.175 178.275 269.55 164.25 237.375 147.375C205.2 130.575 176.925 115.725 174.525 114.45C170.625 112.35 170.1 112.275 169.275 113.325C168 114.975 163.425 117.75 161.85 117.75C160.425 117.75 160.65 116.7 156.75 140.25C154.575 152.925 153.9 158.7 154.5 158.85C156.525 159.525 159.15 162.6 160.05 165.375C160.875 167.775 161.475 168.45 163.275 168.675C168.3 169.275 289.5 179.1 293.25 179.175C295.5 179.175 297 178.95 296.625 178.65ZM303.375 174C304.125 173.175 306.225 172.05 308.025 171.675C310.875 170.925 311.325 170.475 311.925 168.075C318.675 142.125 336.9 72.075 337.2 71.175C337.425 70.35 336.675 69.45 335.025 68.475C333.6 67.65 331.875 65.625 331.05 63.975L329.625 60.975L250.875 83.25C186.45 101.55 172.125 105.825 172.125 106.875C172.125 107.775 190.05 117.45 236.625 141.75C272.1 160.275 301.35 175.425 301.575 175.425C301.8 175.5 302.625 174.825 303.375 174ZM147.675 158.25C148.65 158.25 149.25 157.575 149.55 156.225C150.3 152.7 156 118.95 156 118.125C156 117.75 155.025 116.7 153.825 115.95C151.2 114.15 149.55 111.525 148.875 107.85C148.575 106.2 147.825 104.925 147.075 104.7C136.35 101.625 82.5002 87 81.8252 87C81.3002 87 81.0002 87.375 81.1502 87.825C81.3002 88.275 95.4002 104.625 112.5 124.125C138.675 154.05 143.7 159.525 144.825 158.925C145.575 158.55 146.85 158.25 147.675 158.25ZM250.875 78.375C306.45 62.775 329.85 55.875 330.375 54.975C330.825 54.3 332.175 52.575 333.45 51.075L335.775 48.45L333.525 43.35C330.975 37.575 331.65 38.025 318.15 32.925C294.9 24.225 269.175 19.425 244.35 19.2C237.075 19.2 231 19.275 230.775 19.5C224.1 27.45 169.5 98.475 169.5 99.225C169.5 100.575 170.175 101.25 171.225 100.8C171.75 100.65 207.6 90.525 250.875 78.375ZM151.95 98.175C154.275 95.55 158.025 94.35 162 94.875L165.45 95.325L193.95 58.8C209.55 38.7 222.825 21.6 223.35 20.85C224.325 19.575 224.1 19.5 219.975 19.95C171.975 24.825 124.95 45.9 90.0752 78.15L85.5002 82.425L88.6502 83.325C108.975 88.875 149.025 99.675 149.7 99.675C150.15 99.75 151.125 99 151.95 98.175ZM363 55.95C363 55.575 346.275 45.6 342.15 43.575C340.35 42.6 338.7 42.075 338.475 42.225C338.325 42.45 338.7 43.65 339.3 44.925C340.2 46.575 341.325 47.4 343.725 48.075C345.75 48.6 347.925 50.025 349.8 51.975C352.425 54.75 353.1 55.05 357.675 55.5C360.375 55.8 362.7 56.1 362.85 56.175C362.925 56.175 363 56.1 363 55.95Z" fill="#455A5E"/>
<path d="M516 86.4106V89.2121H530.219H544.437V126.566V163.919H547.379H550.32V126.566V89.2121H564.539H578.757V86.4106V83.6091H547.379H516V86.4106Z" fill="#5F8081"/>
<path d="M628.767 123.764V163.919H631.708H634.65V143.842V123.764H663.087H691.523V143.842V163.919H694.465H697.407V123.764V83.6091H694.465H691.523L691.327 101.072L691.033 118.628L662.891 118.908L634.65 119.095V101.352V83.6091H631.708H628.767V123.764Z" fill="#5F8081"/>
<path d="M760.164 123.764V163.919H780.266H800.367V161.117V158.316H783.207H766.047V140.573V122.924L781.05 122.644L795.955 122.363V120.029V117.694L781.05 117.414L766.047 117.134V103.22V89.2121H782.717H799.387V86.4106V83.6091H779.775H760.164V123.764Z" fill="#5F8081"/>
<path d="M1091.6 211.731C1069.14 213.412 1053.16 219.668 1039.14 232.275C1019.04 250.111 1009.23 273.831 1009.23 304.647C1009.23 329.113 1014.72 348.91 1025.9 364.785C1032.57 374.217 1044.82 385.05 1053.94 389.532C1070.32 397.75 1080.62 399.617 1104.35 398.964C1122.98 398.497 1132.1 396.442 1146.02 389.625C1157.49 384.022 1171.71 370.202 1178.08 358.622C1186.03 343.868 1189.46 330.327 1190.34 310.063C1192.7 253.66 1160.92 215.279 1108.76 211.731C1103.95 211.357 1096.21 211.357 1091.6 211.731ZM1115.43 231.715C1126.7 234.143 1134.25 238.158 1142.59 246.096C1150.82 253.94 1155.34 260.664 1158.87 270.189C1170.53 302.312 1164.94 342.654 1146.02 362.638C1139.84 369.081 1132 374.497 1124.45 377.486C1110.13 383.182 1086.2 382.715 1073.36 376.552C1061.59 370.855 1050.81 360.677 1045.02 349.657C1033.16 327.526 1032.67 286.717 1043.84 264.492C1049.92 252.352 1059.73 242.267 1071.3 236.197C1081.89 230.688 1101.4 228.727 1115.43 231.715Z" fill="#5F8081"/>
<path d="M552.38 213.785C546.594 215.653 542.966 219.108 541.103 224.991C539.632 229.287 539.534 237.971 539.73 310.717C540.024 388.225 540.122 391.68 541.887 393.547C545.123 396.909 549.83 397.843 554.831 395.975C557.184 395.135 559.636 393.641 560.126 392.707C560.714 391.586 561.107 363.105 561.107 314.639C561.107 248.524 561.303 238.438 562.48 239.559C563.264 240.306 568.167 250.018 573.462 261.037C613.666 345.829 632.199 384.303 634.258 386.917C637.494 390.839 641.416 392.707 646.613 392.707C651.418 392.707 656.223 390.279 658.772 386.73C660.145 384.583 673.383 357.221 716.626 266.453L730.256 237.691L730.746 314.079C731.139 371.509 731.531 390.839 732.413 392.333C733.59 394.388 739.278 397.376 741.729 397.376C742.415 397.376 744.867 396.536 747.122 395.602C750.554 394.108 751.437 393.174 752.319 389.999C753.006 387.384 753.3 361.984 753.104 306.608L752.809 226.952L750.652 223.124C744.867 212.851 731.825 209.396 722.019 215.56C717.509 218.454 714.273 224.244 695.152 264.772C659.851 339.479 647.986 364.319 646.907 365.439C646.025 366.373 639.357 353.019 615.529 301.939C598.957 266.36 583.562 233.863 581.307 229.754C576.894 221.536 572.972 216.774 568.951 214.813C564.833 212.758 557.282 212.385 552.38 213.785Z" fill="#5F8081"/>
<path d="M1451.18 214.159C1444.61 218.361 1445.1 211.731 1444.9 304.46C1444.7 370.108 1444.9 388.972 1445.88 390.746C1446.47 391.96 1448.33 393.921 1449.8 394.948C1452.55 396.816 1453.63 396.909 1486.57 396.909C1518.15 396.909 1521.38 396.722 1531.68 394.761C1553.84 390.466 1569.82 382.902 1582.38 370.762C1597.58 356.008 1605.13 336.677 1606.11 309.596C1606.99 288.305 1603.85 271.869 1596.4 257.769C1584.14 234.61 1565.51 221.816 1534.82 215.56C1524.33 213.318 1521.19 213.132 1488.73 212.758C1455.69 212.385 1453.82 212.478 1451.18 214.159ZM1520.21 232.555C1538.54 235.17 1548.94 239.746 1560.02 250.298C1566.49 256.461 1568.84 259.45 1572.08 265.8C1579.63 280.928 1582.28 298.39 1580.02 318.468C1576.79 346.296 1563.55 365.346 1541.39 373.75C1529.82 378.046 1524.03 378.793 1495.89 379.353L1469.12 379.914V305.487V231.155H1490.01C1503.05 231.155 1514.23 231.621 1520.21 232.555Z" fill="#5F8081"/>
<path d="M1870.27 214.065C1868.51 214.906 1866.16 216.96 1865.17 218.454C1863.41 221.256 1863.31 224.991 1863.31 304.834C1863.31 386.917 1863.31 388.318 1865.27 391.306C1869.39 397.563 1867.92 397.47 1929.01 397.189L1984.12 396.909L1986.47 394.295C1989.9 390.466 1989.81 384.116 1986.28 381.034L1983.63 378.7H1935.29H1886.85V345.082V311.557L1930.87 311.277C1973.72 310.997 1975 310.904 1977.65 309.036C1981.27 306.515 1982.26 302.779 1980.49 298.67C1977.94 292.881 1977.25 292.787 1929.5 292.787H1886.85V262.438V232.088H1931.76C1972.45 232.088 1976.86 231.902 1980 230.407C1986.37 227.419 1987.75 220.976 1983.04 216.026L1980.2 212.945L1926.85 212.758C1878.71 212.478 1873.31 212.665 1870.27 214.065Z" fill="#5F8081"/>
<path d="M2253.09 213.879C2247.7 215.746 2246.03 218.081 2245.25 224.898C2244.95 228.073 2244.76 266.173 2244.95 309.596C2245.25 385.89 2245.34 388.598 2247.11 391.493C2250.84 397.376 2251.13 397.376 2307.12 397.376C2363.7 397.376 2363.21 397.47 2365.96 391.213C2367.62 387.384 2367.23 384.676 2364.48 381.408L2362.62 379.166L2316.14 378.7L2269.76 378.233L2269.27 298.857C2268.68 209.863 2269.17 215.466 2261.72 213.505C2257.21 212.291 2257.9 212.291 2253.09 213.879Z" fill="#5F8081"/>
<path d="M915.434 90.252H938.43V163.602H949.419V90.252H972.301V81.1328H915.434V90.252ZM1114.63 163.602H1125.57V125.653H1159.1V163.602H1170.03V81.1328H1159.1V116.25H1125.57V81.1328H1114.63V163.602ZM1318.82 163.602H1329.81V81.1328H1318.82V163.602ZM1478.6 163.602H1488.17V104.922C1488.17 103.601 1488.15 102.26 1488.11 100.901C1488.11 99.5036 1488.08 98.1626 1488 96.8786H1488.28C1488.62 98.0496 1489.04 99.2766 1489.53 100.561C1490.02 101.807 1490.55 102.997 1491.11 104.129L1521.59 163.602H1532.75V81.1328H1523.17V139.586C1523.17 140.832 1523.17 142.154 1523.17 143.551C1523.21 144.948 1523.27 146.289 1523.34 147.573H1523.06C1522.72 146.364 1522.31 145.137 1521.81 143.891C1521.36 142.607 1520.83 141.361 1520.23 140.153L1490.1 81.1328H1478.6V163.602ZM1681.03 163.602H1691.96V133.413L1732.97 81.1328H1721.35L1691.96 119.309V81.1328H1681.03V163.602ZM1723.17 163.602H1735.68L1702.44 113.192L1695.64 121.631L1723.17 163.602ZM1875.02 163.602H1886V81.1328H1875.02V163.602ZM2034.79 163.602H2044.37V104.922C2044.37 103.601 2044.35 102.26 2044.31 100.901C2044.31 99.5036 2044.27 98.1626 2044.2 96.8786H2044.48C2044.82 98.0496 2045.24 99.2766 2045.73 100.561C2046.22 101.807 2046.75 102.997 2047.31 104.129L2077.78 163.602H2088.94V81.1328H2079.37V139.586C2079.37 140.832 2079.37 142.154 2079.37 143.551C2079.41 144.948 2079.47 146.289 2079.54 147.573H2079.26C2078.92 146.364 2078.5 145.137 2078.01 143.891C2077.56 142.607 2077.03 141.361 2076.43 140.153L2046.29 81.1328H2034.79V163.602ZM2235.01 124.577C2235.01 137.491 2237.77 147.422 2243.28 154.37C2248.84 161.28 2256.61 164.735 2266.62 164.735C2273.42 164.735 2278.99 163.564 2283.33 161.223C2287.67 158.882 2290.64 156.748 2292.22 154.823V122.934L2265.49 122.991V131.09H2281.86V151.311C2279.82 153.086 2277.59 154.388 2275.17 155.219C2272.79 156.05 2269.96 156.465 2266.68 156.465C2260.22 156.465 2255.2 153.879 2251.61 148.706C2248.02 143.495 2246.23 136.056 2246.23 126.389V118.459C2246.23 108.679 2247.89 101.26 2251.21 96.1993C2254.57 91.1394 2259.26 88.6094 2265.26 88.6094C2270.7 88.6094 2274.78 90.0632 2277.5 92.9707C2280.21 95.8783 2281.57 99.8056 2281.57 104.752V106.395H2292.17V104.413C2292.17 97.1626 2289.88 91.2904 2285.31 86.7969C2280.78 82.2657 2274.17 80 2265.49 80C2255.9 80 2248.42 83.474 2243.06 90.4219C2237.7 97.3316 2235.01 107.245 2235.01 120.159V124.577Z" fill="#5F8081"/>
</svg>
