<?xml version="1.0" standalone="no"?>
<!DOCTYPE svg PUBLIC "-//W3C//DTD SVG 20010904//EN"
 "http://www.w3.org/TR/2001/REC-SVG-20010904/DTD/svg10.dtd">
<svg version="1.0" xmlns="http://www.w3.org/2000/svg"
 width="2560.000000pt" height="480.000000pt" viewBox="0 0 2560.000000 480.000000"
 preserveAspectRatio="xMidYMid meet">

<g transform="translate(0.000000,480.000000) scale(0.100000,-0.100000)"
fill="#000000" stroke="none">
<path d="M2205 4740 c-464 -35 -956 -235 -1313 -535 -447 -374 -743 -903 -829
-1480 -27 -186 -24 -558 6 -728 74 -423 238 -792 488 -1102 409 -506 997 -819
1648 -875 179 -16 496 1 660 34 370 74 681 211 972 427 108 80 315 277 410
391 204 245 376 588 459 914 105 418 94 865 -32 1283 -118 387 -305 703 -584
981 -500 501 -1163 743 -1885 690z m35 -137 c0 -9 -539 -705 -570 -736 -12
-13 -34 -20 -68 -21 -38 -1 -57 -7 -76 -25 l-24 -23 -317 85 c-174 47 -320 89
-323 92 -15 15 221 204 361 292 132 82 353 185 493 231 165 55 268 77 517 111
4 1 7 -2 7 -6z m430 -7 c63 -8 169 -26 235 -41 124 -28 350 -103 391 -130 13
-8 32 -36 43 -61 l21 -46 -30 -38 c-36 -45 -12 -37 -670 -224 -880 -249 -952
-268 -961 -259 -10 10 48 88 394 538 237 307 197 275 341 275 67 0 173 -7 236
-14z m828 -273 c146 -85 147 -86 84 -80 -39 3 -60 11 -80 29 -15 14 -46 35
-69 47 -24 12 -43 23 -43 25 0 3 -3 11 -6 20 -10 27 14 18 114 -41z m239 -157
c60 -41 255 -221 336 -310 93 -102 188 -232 266 -363 l60 -102 -61 -208 c-33
-114 -65 -214 -71 -221 -6 -7 -25 -12 -44 -10 -34 3 -36 6 -378 596 -330 569
-343 594 -333 624 l11 31 88 -6 c72 -5 95 -10 126 -31z m-418 -11 c11 -20 27
-38 36 -41 8 -4 15 -15 15 -25 0 -30 -251 -982 -262 -996 -6 -7 -18 -13 -28
-13 -10 0 -28 -9 -41 -19 l-24 -19 -155 81 c-654 340 -806 420 -962 505 -98
53 -178 99 -178 104 0 11 148 56 769 232 317 90 623 178 681 194 58 17 110 31
117 31 6 1 20 -15 32 -34z m171 -82 c186 -313 670 -1148 670 -1157 0 -27 -32
-56 -61 -56 -29 0 -796 104 -852 116 -16 3 -32 15 -37 28 -4 12 -19 35 -33 52
l-24 29 131 507 c95 370 134 508 146 512 32 8 39 5 60 -31z m-2340 -229 c173
-47 320 -90 327 -96 6 -5 15 -22 18 -38 4 -16 20 -43 37 -59 l31 -30 -32 -193
c-17 -105 -37 -198 -43 -205 -27 -33 -55 -14 -175 120 -179 200 -498 567 -501
578 -2 5 2 9 10 9 7 0 155 -39 328 -86z m-304 -34 c28 -30 164 -185 303 -343
l253 -288 -13 -46 c-15 -54 -5 -49 -302 -157 l-209 -76 -32 25 c-18 14 -38 25
-44 25 -9 0 -12 47 -12 168 0 92 -3 299 -7 461 -4 177 -3 292 3 290 5 -2 32
-29 60 -59z m-105 -116 c12 -225 12 -748 -1 -752 -14 -5 -49 33 -211 225
l-131 155 19 42 c57 128 282 461 306 453 8 -2 14 -44 18 -123z m1749 -427
c261 -137 477 -251 480 -254 3 -3 -51 -3 -120 0 -176 9 -1220 96 -1231 103 -5
3 -16 20 -25 37 -9 18 -25 39 -37 48 l-20 17 22 142 c43 274 38 255 82 275 21
10 44 24 50 32 13 15 -44 43 799 -400z m2002 -100 c22 -56 55 -160 73 -232 46
-181 86 -530 60 -522 -10 3 -251 281 -281 324 -14 19 -14 25 1 54 21 40 14 93
-15 125 l-22 22 52 184 c29 100 55 187 58 192 7 12 25 -25 74 -147z m-3953
-69 c104 -126 149 -188 144 -198 -4 -8 -8 -38 -11 -66 -4 -50 -5 -53 -120
-166 -172 -169 -354 -338 -365 -338 -23 0 13 384 53 555 36 156 121 395 140
395 4 0 76 -82 159 -182z m1722 -78 c748 -64 719 -62 725 -71 8 -14 -50 -49
-888 -538 l-277 -161 -48 24 c-26 14 -55 27 -63 29 -11 3 -36 96 -93 350 l-77
345 33 35 c24 26 41 35 68 36 20 0 299 -22 620 -49z m-812 -8 l54 -28 79 -349
c74 -329 77 -349 61 -367 -9 -10 -22 -17 -29 -14 -25 10 -722 527 -727 539 -3
7 -3 25 0 39 5 24 24 33 251 116 136 50 249 91 252 91 3 1 30 -12 59 -27z
m2250 -143 c384 -54 438 -63 454 -81 10 -12 16 -25 15 -29 -5 -12 -929 -949
-937 -949 -4 0 -15 6 -25 13 -17 12 -21 62 -47 523 l-29 509 21 15 c11 8 30
25 42 38 11 12 32 22 45 22 14 0 221 -27 461 -61z m-591 -402 c12 -215 25
-446 29 -513 l6 -121 -37 -28 -37 -28 -257 83 c-286 92 -949 318 -971 330 -20
11 43 49 947 577 l222 130 38 -18 38 -19 22 -393z m-2078 162 c326 -238 570
-422 570 -431 0 -12 -46 -11 -755 13 -352 12 -644 26 -650 31 -11 10 228 250
409 411 l98 87 59 -1 c33 -1 63 1 66 5 16 16 49 -3 203 -115z m3305 44 c29
-32 108 -124 177 -205 l124 -147 -8 -99 c-15 -200 -62 -422 -127 -598 -42
-114 -137 -313 -153 -319 -46 -17 -684 -144 -700 -139 -53 16 -54 13 240 724
153 371 294 712 312 758 43 105 60 108 135 25z m-360 -459 c-316 -772 -398
-969 -404 -975 -3 -4 -19 -10 -36 -13 -30 -6 -31 -4 -158 198 l-128 204 15 31
c18 35 20 74 6 101 -9 17 48 79 441 480 249 253 454 458 456 456 2 -2 -85
-219 -192 -482z m-3449 -34 c587 -21 1030 -41 1062 -46 18 -4 32 -10 30 -14
-4 -12 -1115 -860 -1127 -860 -14 0 -123 219 -166 334 -59 161 -106 358 -129
549 -6 46 -5 47 23 47 15 0 154 -5 307 -10z m2079 -299 l450 -148 3 -31 c3
-33 1 -35 -857 -542 l-173 -102 -40 13 c-21 7 -41 16 -44 20 -8 14 -32 159
-95 586 -56 386 -59 413 -44 436 l16 25 167 -54 c92 -30 370 -121 617 -203z
m-875 189 l25 0 70 -491 70 -491 -37 -34 c-25 -23 -48 -34 -67 -34 -31 0 -725
99 -1055 150 -105 17 -196 30 -203 30 -28 0 -9 27 50 71 34 26 265 200 512
388 521 395 562 424 590 417 11 -3 31 -6 45 -6z m1452 -460 c32 0 37 -6 161
-205 l127 -205 -20 -40 c-13 -26 -27 -40 -40 -40 -11 0 -320 -25 -687 -55
-367 -31 -672 -54 -677 -52 -10 3 193 126 833 505 l203 120 34 -14 c18 -8 48
-14 66 -14z m1117 -407 c-117 -194 -365 -458 -585 -624 -131 -98 -344 -222
-359 -208 -2 3 32 128 76 279 44 151 84 292 90 313 7 27 15 37 30 37 39 0 80
31 99 73 l19 42 298 62 c164 33 311 61 326 62 l29 1 -23 -37z m-3457 -88 c866
-121 963 -136 973 -152 6 -8 20 -31 33 -50 l22 -34 -95 -234 c-124 -304 -143
-345 -155 -345 -23 0 -242 105 -338 162 -233 140 -474 353 -633 563 -92 122
-94 125 -76 125 8 0 129 -16 269 -35z m2618 -75 l32 -40 -87 -298 c-48 -163
-92 -312 -97 -330 -7 -24 -19 -37 -41 -47 -30 -12 -37 -10 -132 37 -257 129
-1019 536 -1070 572 l-29 20 37 8 c52 11 973 90 1292 111 28 2 53 4 57 5 3 1
21 -16 38 -38z m-934 -401 c598 -319 634 -338 634 -348 0 -10 -183 -65 -290
-87 -148 -31 -287 -44 -475 -44 -205 0 -315 12 -500 56 -155 37 -217 61 -211
82 3 10 54 138 113 285 l108 268 55 24 c30 12 60 23 66 24 5 0 230 -116 500
-260z"/>
<path d="M22740 3951 c-145 -45 -220 -182 -220 -406 0 -143 33 -260 94 -332
15 -18 52 -44 83 -60 49 -23 69 -27 142 -27 90 0 145 17 211 64 l30 21 0 160
0 159 -125 0 -125 0 0 -35 0 -35 80 0 81 0 -3 -106 c-3 -104 -4 -107 -31 -128
-24 -18 -43 -21 -115 -21 -77 0 -91 3 -120 25 -70 53 -110 207 -97 375 16 198
73 275 202 275 93 0 141 -41 158 -133 7 -36 8 -37 51 -37 l44 0 0 38 c0 49
-41 132 -80 161 -17 12 -49 29 -72 37 -43 15 -146 18 -188 5z"/>
<path d="M9330 3910 l0 -40 115 0 115 0 0 -370 0 -370 50 0 50 0 0 370 0 370
115 0 115 0 0 40 0 40 -280 0 -280 0 0 -40z"/>
<path d="M11320 3540 l0 -410 50 0 50 0 0 190 0 190 170 0 170 0 0 -190 0
-190 50 0 50 0 0 410 0 410 -50 0 -50 0 0 -175 0 -175 -170 0 -170 0 0 175 0
175 -50 0 -50 0 0 -410z"/>
<path d="M13360 3540 l0 -410 50 0 50 0 0 410 0 410 -50 0 -50 0 0 -410z"/>
<path d="M14960 3540 l0 -410 40 0 40 0 0 335 c0 305 6 382 24 310 3 -13 77
-163 164 -332 l158 -308 52 -3 52 -3 0 410 0 411 -45 0 -45 0 0 -330 0 -330
-167 330 -168 330 -52 0 -53 0 0 -410z"/>
<path d="M16980 3540 l0 -410 50 0 50 0 0 151 0 151 31 39 c17 21 34 39 38 39
3 0 63 -85 131 -190 l125 -190 53 0 c28 0 52 2 52 5 0 3 -64 103 -143 223 -78
119 -146 222 -150 229 -4 6 49 82 128 183 74 95 135 174 135 176 0 2 -22 4
-49 4 l-48 0 -142 -185 c-78 -101 -146 -187 -151 -190 -6 -4 -10 64 -10 184
l0 191 -50 0 -50 0 0 -410z"/>
<path d="M18920 3540 l0 -410 50 0 50 0 0 410 0 410 -50 0 -50 0 0 -410z"/>
<path d="M20520 3540 l0 -410 45 0 46 0 -3 335 c-2 184 -1 335 2 334 3 -1 80
-150 171 -333 l167 -331 51 -3 51 -3 0 410 0 411 -46 0 -45 0 3 -330 c2 -182
1 -330 -2 -329 -3 0 -79 149 -169 330 l-164 329 -53 0 -54 0 0 -410z"/>
<path d="M5330 3905 l0 -25 145 0 145 0 0 -375 0 -375 25 0 25 0 0 375 0 375
140 0 140 0 0 25 0 25 -310 0 -310 0 0 -25z"/>
<path d="M6460 3530 l0 -400 25 0 25 0 0 200 0 200 290 0 290 0 0 -200 0 -200
25 0 25 0 0 400 0 400 -23 0 c-23 0 -24 -3 -30 -107 -4 -58 -7 -136 -7 -173
l0 -67 -31 -7 c-17 -3 -146 -6 -285 -6 l-254 0 0 180 0 180 -25 0 -25 0 0
-400z"/>
<path d="M7770 3530 l0 -400 200 0 200 0 0 25 0 25 -175 0 -175 0 0 178 0 179
146 6 c80 3 148 8 151 11 3 3 3 12 0 21 -5 12 -30 15 -152 15 l-145 0 0 145 0
145 170 0 170 0 0 25 0 25 -195 0 -195 0 0 -400z"/>
<path d="M11031 2639 c-219 -26 -376 -102 -522 -256 -172 -180 -243 -380 -242
-673 1 -331 101 -570 312 -747 74 -61 213 -133 311 -160 92 -25 442 -25 544 0
311 78 539 321 606 646 55 270 27 531 -81 751 -46 92 -64 117 -148 201 -86 86
-108 102 -201 147 -188 89 -359 116 -579 91z m272 -184 c155 -27 303 -126 394
-263 102 -154 148 -436 108 -663 -39 -227 -129 -381 -283 -483 -102 -68 -174
-88 -322 -93 -220 -8 -340 35 -476 171 -112 112 -161 217 -189 403 -47 312 19
587 181 758 146 153 352 212 587 170z"/>
<path d="M7436 2626 c-86 -32 -98 -53 -456 -811 -267 -564 -337 -705 -350
-705 -12 0 -99 177 -355 725 -267 570 -319 674 -361 724 -45 52 -86 71 -154
71 -97 0 -162 -48 -181 -135 -7 -35 -10 -293 -7 -846 3 -765 4 -798 22 -818
27 -29 75 -36 122 -16 21 8 42 21 46 28 4 7 8 285 8 618 0 633 7 909 22 909
10 0 104 -190 464 -945 126 -264 238 -493 249 -509 48 -71 132 -92 204 -50 38
21 89 123 526 1041 126 265 232 480 234 477 3 -2 8 -345 12 -762 3 -416 9
-764 13 -773 21 -50 117 -61 168 -20 l23 19 3 822 2 823 -25 43 c-46 78 -150
119 -229 90z"/>
<path d="M14722 2631 c-65 -11 -83 -35 -93 -128 -9 -90 -10 -1584 0 -1627 3
-16 19 -38 34 -50 27 -20 42 -21 325 -24 327 -4 438 5 587 43 118 30 277 106
357 169 174 138 270 343 286 609 19 310 -37 523 -186 703 -103 125 -254 213
-460 266 -111 29 -131 30 -407 38 -333 10 -384 10 -443 1z m728 -200 c143 -31
228 -77 330 -180 96 -97 135 -164 172 -303 32 -117 31 -364 0 -483 -68 -251
-216 -405 -449 -466 -70 -18 -288 -31 -635 -39 -17 0 -18 42 -18 751 l0 752
253 -6 c199 -5 272 -10 347 -26z"/>
<path d="M18977 2630 c-107 -5 -109 -6 -137 -36 l-28 -32 -7 -338 c-10 -422 0
-1319 14 -1356 5 -15 22 -35 38 -45 25 -17 67 -18 589 -21 l562 -3 21 30 c27
37 27 81 0 115 l-20 26 -490 0 -489 0 0 339 0 339 23 6 c12 3 204 6 427 6 438
1 465 4 488 52 20 43 -5 94 -55 107 -24 7 -193 11 -460 11 l-423 0 0 310 0
310 433 0 c237 0 449 4 470 9 84 20 111 85 60 140 l-28 30 -440 3 c-242 2
-489 1 -548 -2z"/>
<path d="M22702 2622 c-82 -27 -77 19 -80 -737 -2 -368 0 -748 3 -844 7 -171
8 -174 35 -205 l28 -31 547 0 547 0 24 28 c29 34 31 76 3 111 -20 26 -21 26
-162 26 -78 0 -287 3 -464 7 l-323 6 -1 351 c-1 594 -15 1229 -27 1257 -15 37
-72 51 -130 31z"/>
</g>
</svg>
